<?xml version="1.0" encoding="iso-8859-1"?>
<!-- Generator: Adobe Illustrator 15.1.0, SVG Export Plug-In . SVG Version: 6.00 Build 0)  -->
<!DOCTYPE svg PUBLIC "-//W3C//DTD SVG 1.1//EN" "http://www.w3.org/Graphics/SVG/1.1/DTD/svg11.dtd">
<svg version="1.1" id="Layer_1" xmlns="http://www.w3.org/2000/svg" xmlns:xlink="http://www.w3.org/1999/xlink" x="0px" y="0px"
	 width="250px" height="249.981px" viewBox="0 0 250 249.981" style="enable-background:new 0 0 250 249.981;" xml:space="preserve"
	>
<g>
	<g>
		<g>
			<circle style="fill:#FFFFFF;" cx="125.001" cy="124.992" r="123.636"/>
			<g>
				<path style="fill:#144B8E;" d="M125.004,0C55.959,0,0,55.96,0,124.986c0,69.042,55.959,124.996,125.004,124.996
					S250,194.028,250,124.986C250,55.96,194.049,0,125.004,0z M125.004,246.5c-67.116,0-121.517-54.395-121.517-121.514
					c0-67.1,54.401-121.504,121.517-121.504c67.11,0,121.514,54.404,121.514,121.504C246.519,192.105,192.115,246.5,125.004,246.5z"
					/>
				<path style="fill:#144B8E;" d="M119.351,189.819V83.646c1.091,0.231,2.233,0.388,3.423,0.478v106.288
					c0.717,0.062,1.467,0.102,2.225,0.102c0.757,0,1.5-0.04,2.237-0.102V84.123c1.183-0.089,2.323-0.247,3.408-0.478v106.167
					c1.62-0.425,3.118-1.063,4.479-1.904V82.25c1.313-0.585,2.458-1.272,3.407-2.046v104.735c2.712-3.213,4.301-7.881,4.301-14.194
					l0.019-95.578c0-5.207,4.227-7.853,8.46-7.853c4.246,0,8.473,2.646,8.473,7.859l-0.025,95.572
					c0,16.545-8.503,29.069-22.436,33.623c38.654-5.938,68.25-39.322,68.25-79.631c0-44.49-36.072-80.559-80.573-80.559
					c-44.493,0-80.568,36.069-80.568,80.559c0,40.299,29.59,73.681,68.225,79.618c-13.938-4.55-22.426-17.075-22.426-33.61V75.167
					c0-5.207,4.217-7.853,8.463-7.853c4.245,0,8.466,2.646,8.466,7.853v95.578c0,6.326,1.599,11.008,4.32,14.216V80.204
					c0.94,0.773,2.095,1.46,3.414,2.046v105.662C116.249,188.753,117.746,189.391,119.351,189.819z"/>
			</g>
		</g>
		<g>
			<path style="fill:#144B8E;" d="M60.039,222.478c-0.401-0.268-0.65-0.647-0.746-1.119c-0.092-0.483-0.006-0.918,0.265-1.321
				c0.269-0.404,0.641-0.65,1.122-0.746c0.475-0.093,0.912-0.006,1.318,0.262c0.401,0.268,0.647,0.646,0.743,1.119
				c0.095,0.477,0.009,0.918-0.262,1.321c-0.268,0.404-0.641,0.65-1.112,0.749C60.896,222.841,60.452,222.749,60.039,222.478z
				 M71.143,197.451l0.33-0.496l7.792,5.213l-0.333,0.496l-0.645-0.432c-0.751-0.502-1.445-0.647-2.073-0.441
				c-0.407,0.142-0.974,0.758-1.707,1.849l-7.859,11.745c-0.613,0.924-0.965,1.571-1.044,1.941
				c-0.062,0.287-0.006,0.601,0.164,0.949c0.249,0.472,0.588,0.856,1.02,1.143l0.641,0.431l-0.333,0.496l-7.789-5.212l0.332-0.497
				l0.66,0.44c0.739,0.497,1.429,0.638,2.059,0.428c0.418-0.135,0.988-0.751,1.719-1.839l7.859-11.748
				c0.616-0.918,0.964-1.565,1.044-1.941c0.062-0.277,0.002-0.598-0.176-0.952c-0.244-0.469-0.576-0.851-1.005-1.14L71.143,197.451z
				"/>
			<path style="fill:#144B8E;" d="M44.832,203.274l5.142-5.552l0.438,0.407c-0.845,1.195-1.377,2.277-1.593,3.248
				c-0.219,0.971-0.16,1.959,0.176,2.958c0.335,1.001,0.865,1.836,1.592,2.507c0.819,0.761,1.732,1.14,2.733,1.134
				c1.001-0.003,1.796-0.324,2.388-0.965c0.453-0.487,0.696-1.09,0.73-1.812c0.058-1.041-0.376-2.912-1.303-5.598
				c-0.752-2.194-1.205-3.762-1.355-4.698c-0.148-0.937-0.105-1.833,0.141-2.693c0.247-0.856,0.666-1.605,1.257-2.246
				c1.125-1.217,2.563-1.824,4.322-1.833c1.76-0.006,3.38,0.675,4.862,2.052c0.466,0.428,0.872,0.872,1.218,1.322
				c0.208,0.265,0.582,0.878,1.121,1.839c0.536,0.961,0.912,1.537,1.115,1.729c0.197,0.182,0.406,0.268,0.631,0.255
				c0.225-0.015,0.536-0.178,0.934-0.499l0.438,0.407l-5.096,5.503l-0.438-0.407c0.863-1.34,1.387-2.458,1.565-3.355
				c0.186-0.891,0.092-1.858-0.271-2.896c-0.364-1.042-0.971-1.957-1.824-2.745c-0.986-0.912-2.002-1.374-3.06-1.383
				s-1.914,0.342-2.566,1.054c-0.37,0.391-0.628,0.894-0.782,1.494c-0.157,0.604-0.167,1.294-0.031,2.062
				c0.09,0.523,0.462,1.805,1.125,3.845s1.069,3.559,1.227,4.551c0.157,1.001,0.126,1.91-0.083,2.739
				c-0.209,0.832-0.622,1.581-1.238,2.243c-1.066,1.149-2.428,1.731-4.082,1.747c-1.655,0.016-3.165-0.613-4.533-1.876
				c-0.85-0.789-1.559-1.83-2.125-3.136c-0.259-0.601-0.481-0.992-0.663-1.159c-0.206-0.19-0.428-0.286-0.674-0.286
				c-0.24,0.003-0.573,0.154-0.998,0.453L44.832,203.274z"/>
			<path style="fill:#144B8E;" d="M29.328,182.785l4-3.226l0.357,0.496c-0.656,0.628-1.084,1.14-1.275,1.534
				c-0.308,0.635-0.416,1.266-0.327,1.885c0.086,0.623,0.397,1.3,0.93,2.027l1.817,2.49l13.495-9.866
				c1.084-0.792,1.676-1.404,1.775-1.833c0.123-0.598-0.068-1.239-0.567-1.926l-0.45-0.61l0.483-0.354l5.475,7.49l-0.483,0.352
				l-0.458-0.625c-0.542-0.746-1.159-1.112-1.836-1.094c-0.416,0.013-1.122,0.379-2.11,1.104l-13.492,9.862l1.55,2.123
				c0.601,0.826,1.094,1.368,1.469,1.624c0.493,0.333,1.091,0.49,1.796,0.468c0.703-0.025,1.476-0.296,2.32-0.823l0.363,0.5
				l-4.294,2.819L29.328,182.785z"/>
			<path style="fill:#144B8E;" d="M35.206,161.231l3.42,7.746l3.759-0.037c0.924-0.009,1.58-0.099,1.965-0.268
				c0.302-0.132,0.505-0.397,0.61-0.792c0.104-0.392-0.025-1.085-0.382-2.077l0.548-0.244l2.782,6.301l-0.545,0.243
				c-0.518-0.773-0.949-1.229-1.294-1.371c-0.69-0.292-1.897-0.425-3.611-0.397l-19.58,0.24l-0.228-0.515l13.565-14.323
				c1.091-1.149,1.734-2.043,1.929-2.677c0.197-0.632,0.141-1.368-0.172-2.206l0.548-0.244l3.488,7.897l-0.548,0.24
				c-0.388-0.779-0.758-1.26-1.109-1.439c-0.351-0.182-0.69-0.2-1.011-0.055c-0.434,0.191-1.032,0.69-1.793,1.494L35.206,161.231z
				 M34.295,162.127l-6.588,6.966l9.625-0.089L34.295,162.127z"/>
			<path style="fill:#144B8E;" d="M17.158,155.253l-0.955-5.86l14.037-15.842l-12.454,2.034c-1.325,0.215-2.129,0.499-2.409,0.85
				c-0.382,0.465-0.506,1.122-0.364,1.972l0.124,0.749l-0.592,0.095l-1.226-7.515l0.592-0.095l0.123,0.764
				c0.148,0.912,0.53,1.516,1.147,1.806c0.375,0.179,1.17,0.17,2.377-0.028l18.2-2.97l0.092,0.573l-15.063,17.072l13.298-2.169
				c1.325-0.216,2.129-0.496,2.409-0.835c0.382-0.478,0.505-1.134,0.366-1.975l-0.126-0.761l0.592-0.099l1.227,7.515l-0.592,0.099
				l-0.12-0.749c-0.151-0.924-0.533-1.534-1.149-1.824c-0.375-0.179-1.17-0.169-2.378,0.031l-15.017,2.45
				c-0.628,0.746-1.035,1.3-1.214,1.66c-0.182,0.364-0.321,0.872-0.423,1.531c-0.045,0.324-0.015,0.798,0.086,1.426L17.158,155.253z
				"/>
			<path style="fill:#144B8E;" d="M25.095,112.671c0.443-1.485,1.054-2.576,1.821-3.269c1.072-0.958,2.32-1.383,3.743-1.266
				c1.085,0.089,2.092,0.518,3.029,1.285c0.937,0.764,1.583,1.762,1.941,2.994c0.36,1.232,0.44,3.078,0.24,5.53l-0.835,10.291
				l-0.598-0.046l0.067-0.823c0.075-0.909-0.16-1.587-0.708-2.03c-0.354-0.277-1.14-0.465-2.366-0.567l-14.086-1.14
				c-1.35-0.108-2.212-0.025-2.594,0.258c-0.505,0.379-0.789,0.983-0.856,1.809l-0.068,0.82l-0.592-0.049l0.764-9.422
				c0.142-1.759,0.382-3.158,0.727-4.2c0.518-1.574,1.301-2.745,2.349-3.515c1.047-0.767,2.211-1.1,3.487-0.992
				c1.094,0.086,2.045,0.5,2.853,1.232C24.226,110.309,24.786,111.34,25.095,112.671z M23.545,121.027
				c0.108-0.392,0.2-0.841,0.28-1.347c0.078-0.505,0.142-1.063,0.191-1.676c0.126-1.565,0.055-2.754-0.219-3.571
				c-0.274-0.813-0.742-1.46-1.405-1.935c-0.662-0.474-1.407-0.742-2.233-0.81c-1.275-0.104-2.406,0.33-3.389,1.294
				c-0.985,0.965-1.559,2.446-1.722,4.443c-0.086,1.069-0.047,2.043,0.12,2.921L23.545,121.027z M33.965,121.871
				c0.391-1.22,0.632-2.437,0.733-3.647c0.157-1.941-0.161-3.454-0.952-4.544c-0.789-1.088-1.83-1.686-3.118-1.79
				c-0.844-0.071-1.676,0.095-2.496,0.493c-0.823,0.397-1.498,1.097-2.034,2.101s-0.862,2.271-0.988,3.805
				c-0.053,0.666-0.09,1.232-0.105,1.707c-0.016,0.474-0.009,0.856,0.021,1.152L33.965,121.871z"/>
			<path style="fill:#144B8E;" d="M21.274,86.113l-0.566-0.191l2.455-7.345l0.567,0.191l-0.262,0.779
				c-0.271,0.816-0.142,1.559,0.394,2.225c0.247,0.32,0.943,0.671,2.098,1.057l8.414,2.816c2.08,0.693,3.626,1.439,4.634,2.237
				c1.011,0.798,1.725,1.938,2.138,3.42c0.419,1.482,0.281,3.266-0.416,5.346c-0.758,2.267-1.722,3.854-2.899,4.763
				c-1.18,0.912-2.514,1.389-4.002,1.436c-1.02,0.021-2.776-0.385-5.271-1.217l-8.112-2.715c-1.275-0.425-2.172-0.53-2.684-0.311
				c-0.517,0.219-0.905,0.721-1.171,1.506l-0.259,0.78l-0.566-0.188l2.998-8.965l0.563,0.188l-0.265,0.798
				c-0.283,0.856-0.219,1.559,0.197,2.107c0.283,0.376,1.004,0.758,2.169,1.149l9.04,3.022c0.807,0.271,1.756,0.502,2.847,0.706
				c1.088,0.197,1.991,0.204,2.699,0.009c0.712-0.194,1.377-0.591,2-1.195c0.619-0.604,1.106-1.436,1.464-2.496
				c0.453-1.356,0.563-2.671,0.329-3.938c-0.234-1.27-0.745-2.252-1.538-2.955c-0.792-0.703-2.289-1.42-4.492-2.157l-8.398-2.81
				c-1.297-0.435-2.156-0.561-2.576-0.385c-0.585,0.25-1.004,0.764-1.27,1.549L21.274,86.113z"/>
			<path style="fill:#144B8E;" d="M48.64,66.904l0.375-0.392l4.055,4.72l-8.941,14.388l-0.506-0.314l0.432-0.699
				c0.49-0.783,0.586-1.506,0.284-2.16c-0.176-0.375-0.789-0.89-1.849-1.549l-11.992-7.45c-1.158-0.721-1.965-1.045-2.415-0.971
				c-0.623,0.108-1.156,0.511-1.593,1.213l-0.435,0.7l-0.505-0.314l5.229-8.414l0.505,0.314c-0.623,0.983-0.961,1.731-1.014,2.246
				c-0.055,0.518,0.019,0.94,0.219,1.269c0.2,0.327,0.854,0.835,1.959,1.52l11.674,7.255c0.758,0.471,1.324,0.721,1.7,0.752
				c0.259,0.009,0.505-0.071,0.74-0.244c0.231-0.169,0.721-0.854,1.463-2.052l0.841-1.356c0.888-1.426,1.406-2.492,1.553-3.198
				s0.098-1.46-0.139-2.268C50.044,69.094,49.496,68.096,48.64,66.904z"/>
			<path style="fill:#144B8E;" d="M52.753,39.563c2.166-1.839,4.735-2.61,7.717-2.314c2.983,0.296,5.518,1.673,7.61,4.132
				c2.15,2.532,3.139,5.314,2.96,8.343c-0.175,3.028-1.402,5.508-3.669,7.438c-2.298,1.95-4.917,2.776-7.863,2.471
				c-2.951-0.305-5.521-1.753-7.721-4.341c-2.255-2.65-3.186-5.574-2.803-8.778C49.317,43.731,50.575,41.418,52.753,39.563z
				 M53.282,40.66c-1.494,1.266-2.218,2.837-2.178,4.71c0.046,2.329,1.196,4.825,3.454,7.48c2.314,2.718,4.674,4.32,7.083,4.797
				c1.843,0.354,3.495-0.093,4.964-1.337c1.562-1.331,2.338-3.041,2.319-5.127c-0.019-2.089-1.143-4.449-3.38-7.08
				c-2.421-2.85-4.791-4.501-7.104-4.948C56.591,38.808,54.872,39.307,53.282,40.66z"/>
			<path style="fill:#144B8E;" d="M78.882,34.325l10.766,3.669c1.768,0.61,3.18,0.924,4.233,0.943
				c1.048,0.021,2.009-0.145,2.878-0.499l0.259,0.536l-9.348,4.563l-0.262-0.536c0.558-0.271,0.915-0.564,1.069-0.872
				c0.157-0.311,0.179-0.579,0.065-0.813c-0.114-0.231-0.262-0.416-0.44-0.554c-0.182-0.139-0.653-0.333-1.411-0.585l-10.063-3.405
				l3.093,6.334c0.487,0.998,0.869,1.624,1.152,1.883c0.212,0.194,0.518,0.302,0.912,0.327c0.53,0.027,1.026-0.071,1.492-0.296
				l0.666-0.327l0.258,0.536l-8.38,4.088l-0.259-0.537l0.696-0.338c0.813-0.397,1.285-0.921,1.423-1.574
				c0.08-0.422-0.166-1.224-0.746-2.403l-6.196-12.7c-0.484-0.996-0.872-1.624-1.155-1.895c-0.21-0.185-0.508-0.29-0.894-0.317
				c-0.539-0.025-1.039,0.077-1.503,0.302l-0.696,0.339l-0.259-0.536l8.38-4.088l0.259,0.536l-0.666,0.326
				c-0.456,0.222-0.838,0.545-1.159,0.977c-0.222,0.302-0.317,0.635-0.283,1.002c0.037,0.363,0.289,1.032,0.758,1.996l2.939,6.017
				c0.104-0.277,0.465-1.214,1.087-2.81c1.587-4.03,2.468-6.63,2.634-7.804c0.074-0.512,0.04-0.915-0.102-1.205
				c-0.108-0.222-0.305-0.37-0.592-0.441c-0.287-0.068-0.669,0.016-1.155,0.25l-0.447,0.222l-0.261-0.539l7.222-3.521l0.262,0.536
				c-0.422,0.218-0.779,0.465-1.075,0.739c-0.299,0.277-0.622,0.69-0.977,1.241c-0.354,0.548-0.733,1.34-1.137,2.375
				c-0.118,0.296-0.616,1.766-1.492,4.409L78.882,34.325z"/>
			<path style="fill:#144B8E;" d="M109.094,29.266l-8.3,1.682l-0.77,3.679c-0.188,0.906-0.241,1.563-0.157,1.975
				c0.064,0.327,0.28,0.582,0.641,0.764c0.36,0.188,1.066,0.212,2.114,0.077l0.12,0.585l-6.753,1.368l-0.118-0.585
				c0.863-0.339,1.402-0.663,1.614-0.971c0.435-0.613,0.823-1.763,1.159-3.442l3.969-19.176l0.554-0.111l11.076,16.323
				c0.891,1.31,1.624,2.129,2.203,2.456c0.577,0.329,1.307,0.431,2.194,0.308l0.117,0.582l-8.458,1.716l-0.12-0.589
				c0.844-0.212,1.396-0.471,1.645-0.776c0.253-0.302,0.343-0.628,0.271-0.976c-0.092-0.462-0.456-1.153-1.078-2.068L109.094,29.266
				z M108.417,28.185l-5.392-7.927l-1.975,9.421L108.417,28.185z"/>
			<path style="fill:#144B8E;" d="M118.769,12.925l5.928,0.312l12.491,17.09l0.666-12.598c0.067-1.34-0.037-2.188-0.321-2.539
				c-0.37-0.472-0.986-0.73-1.848-0.773l-0.755-0.04l0.031-0.598l7.601,0.4l-0.031,0.598l-0.77-0.04
				c-0.924-0.049-1.596,0.197-2.009,0.733c-0.252,0.333-0.413,1.109-0.48,2.332l-0.974,18.415l-0.579-0.031l-13.474-18.35
				l-0.708,13.448c-0.071,1.343,0.027,2.188,0.302,2.539c0.385,0.472,1.001,0.73,1.849,0.774l0.773,0.043l-0.031,0.594l-7.604-0.4
				l0.03-0.594l0.759,0.037c0.934,0.049,1.608-0.194,2.023-0.733c0.256-0.33,0.417-1.109,0.481-2.333l0.801-15.192
				c-0.595-0.773-1.051-1.288-1.365-1.541c-0.315-0.252-0.783-0.499-1.405-0.736c-0.309-0.114-0.777-0.188-1.411-0.222
				L118.769,12.925z"/>
			<path style="fill:#144B8E;" d="M171.349,23.942l0.222-0.552l7.16,2.961l-0.228,0.549l-0.764-0.314
				c-0.795-0.33-1.541-0.247-2.25,0.24c-0.333,0.222-0.733,0.896-1.195,2.018l-3.396,8.199c-0.838,2.027-1.689,3.518-2.551,4.467
				c-0.869,0.952-2.059,1.583-3.561,1.898c-1.51,0.311-3.279,0.049-5.306-0.789c-2.206-0.912-3.722-1.987-4.548-3.226
				c-0.832-1.239-1.214-2.601-1.159-4.091c0.05-1.017,0.58-2.742,1.584-5.176l3.271-7.903c0.512-1.242,0.679-2.126,0.493-2.656
				c-0.178-0.53-0.653-0.952-1.417-1.27l-0.764-0.314l0.235-0.551l8.731,3.614l-0.228,0.551l-0.771-0.32
				c-0.838-0.345-1.547-0.33-2.119,0.049c-0.395,0.255-0.826,0.949-1.301,2.083l-3.641,8.811c-0.327,0.783-0.623,1.713-0.9,2.786
				c-0.277,1.072-0.345,1.972-0.197,2.696c0.142,0.721,0.493,1.414,1.054,2.073c0.555,0.663,1.35,1.208,2.385,1.636
				c1.318,0.548,2.625,0.749,3.906,0.601c1.282-0.142,2.299-0.585,3.05-1.328c0.758-0.739,1.578-2.184,2.465-4.332l3.39-8.183
				c0.523-1.26,0.708-2.107,0.561-2.542c-0.204-0.598-0.69-1.057-1.455-1.371L171.349,23.942z M168.231,15.861
				c0.456,0.188,0.77,0.505,0.955,0.956c0.185,0.446,0.179,0.893-0.006,1.343c-0.185,0.444-0.499,0.761-0.949,0.94
				c-0.444,0.185-0.888,0.185-1.325,0.003c-0.45-0.185-0.764-0.499-0.955-0.946c-0.185-0.444-0.191-0.891-0.007-1.337
				c0.191-0.447,0.5-0.764,0.943-0.955C167.337,15.676,167.781,15.676,168.231,15.861z M173.493,18.036
				c0.444,0.188,0.758,0.502,0.943,0.952c0.179,0.446,0.179,0.893-0.006,1.34c-0.186,0.447-0.499,0.764-0.943,0.946
				c-0.443,0.185-0.887,0.182-1.337-0.003c-0.443-0.185-0.764-0.5-0.949-0.943c-0.191-0.447-0.191-0.89-0.006-1.337
				c0.185-0.447,0.499-0.764,0.949-0.952C172.593,17.854,173.043,17.851,173.493,18.036z"/>
			<path style="fill:#144B8E;" d="M182.582,28.431l4.739,3.574l0.807,21.151l7.592-10.075c0.813-1.076,1.196-1.833,1.152-2.283
				c-0.043-0.598-0.407-1.158-1.097-1.676l-0.604-0.456l0.357-0.478l6.082,4.584l-0.357,0.474l-0.622-0.465
				c-0.74-0.555-1.43-0.728-2.077-0.515c-0.394,0.132-0.961,0.69-1.701,1.67l-11.098,14.724l-0.462-0.352l-0.917-22.75l-8.11,10.759
				c-0.807,1.076-1.195,1.83-1.165,2.271c0.056,0.607,0.419,1.167,1.097,1.679l0.623,0.465l-0.364,0.478l-6.075-4.584l0.357-0.478
				l0.604,0.456c0.751,0.564,1.442,0.74,2.089,0.527c0.4-0.135,0.967-0.69,1.701-1.667l9.163-12.148
				c-0.062-0.977-0.154-1.658-0.271-2.042c-0.123-0.385-0.375-0.851-0.758-1.396c-0.191-0.265-0.536-0.588-1.047-0.971
				L182.582,28.431z"/>
			<path style="fill:#144B8E;" d="M195.128,67.56l-0.444,0.4l-6.309-6.926l0.443-0.4l0.517,0.573
				c0.61,0.666,1.245,0.974,1.911,0.921c0.425-0.043,1.128-0.505,2.095-1.39l10.451-9.52c0.813-0.742,1.306-1.288,1.479-1.633
				c0.123-0.259,0.148-0.58,0.068-0.955c-0.129-0.524-0.371-0.977-0.715-1.356l-0.523-0.573l0.444-0.404l6.31,6.929l-0.437,0.401
				l-0.53-0.586c-0.604-0.656-1.239-0.961-1.904-0.909c-0.438,0.034-1.141,0.493-2.108,1.374l-10.444,9.52
				c-0.819,0.746-1.313,1.291-1.479,1.636c-0.129,0.259-0.148,0.582-0.056,0.964c0.117,0.518,0.357,0.967,0.703,1.346L195.128,67.56
				z M211.9,45.919c0.327,0.36,0.48,0.779,0.456,1.269c-0.019,0.484-0.215,0.891-0.573,1.217c-0.357,0.326-0.776,0.478-1.263,0.453
				c-0.487-0.021-0.894-0.213-1.214-0.57c-0.333-0.357-0.48-0.779-0.456-1.266c0.019-0.487,0.21-0.891,0.567-1.217
				c0.357-0.327,0.776-0.481,1.257-0.462C211.161,45.361,211.567,45.555,211.9,45.919z"/>
			<path style="fill:#144B8E;" d="M226.196,75.971l-0.505,0.314c-0.53-0.585-1.054-0.952-1.559-1.103
				c-0.752-0.207-1.708-0.207-2.859-0.009l-19.835,3.346l-0.321-0.508l11.69-16.915c0.604-0.866,0.948-1.43,1.047-1.691
				c0.135-0.403,0.185-0.822,0.135-1.254c-0.049-0.435-0.228-0.946-0.53-1.541l0.506-0.317l4.72,7.592l-0.505,0.314
				c-0.623-0.805-1.109-1.272-1.479-1.399c-0.37-0.124-0.714-0.083-1.048,0.12c-0.456,0.283-1.041,0.937-1.744,1.959l-7.955,11.495
				l13.476-2.298c1.332-0.231,2.2-0.472,2.606-0.727c0.266-0.167,0.438-0.457,0.512-0.869c0.081-0.416-0.024-0.97-0.314-1.664
				c-0.018-0.053-0.055-0.139-0.104-0.259l0.505-0.314L226.196,75.971z"/>
			<path style="fill:#144B8E;" d="M229.019,87.038l-8.202,2.739l1.522,4.563c0.395,1.18,0.838,1.91,1.331,2.19
				c0.642,0.373,1.565,0.394,2.773,0.059l0.191,0.567l-7.222,2.412l-0.191-0.567c0.961-0.48,1.565-0.838,1.799-1.075
				c0.296-0.305,0.475-0.699,0.542-1.183c0.062-0.487-0.049-1.165-0.339-2.033l-1.522-4.56l-6.846,2.287
				c-0.918,0.305-1.454,0.533-1.633,0.68c-0.173,0.151-0.277,0.342-0.327,0.589c-0.049,0.243,0.019,0.65,0.209,1.22l1.177,3.522
				c0.388,1.17,0.758,1.996,1.097,2.471c0.338,0.478,0.831,0.878,1.478,1.208c0.838,0.422,2.009,0.751,3.506,0.989l0.204,0.613
				l-5.798-0.052l-5.336-15.991l0.561-0.188l0.247,0.733c0.166,0.49,0.437,0.915,0.819,1.276c0.271,0.271,0.591,0.41,0.955,0.418
				c0.363,0.009,1.053-0.157,2.058-0.493l13.482-4.501c1.318-0.441,2.083-0.847,2.304-1.213c0.283-0.502,0.283-1.184-0.006-2.04
				l-0.247-0.733l0.573-0.191l5.336,15.99l-4.468,1.747l-0.197-0.595c1.017-0.579,1.689-1.066,2.01-1.463
				c0.32-0.395,0.504-0.888,0.548-1.467c0.019-0.459-0.148-1.205-0.487-2.233L229.019,87.038z"/>
			<path style="fill:#144B8E;" d="M215.684,127.43l-0.573-5.814l9.458-8.368c-0.08-0.542-0.129-0.982-0.167-1.328
				c-0.012-0.138-0.024-0.289-0.037-0.45c-0.006-0.163-0.018-0.326-0.018-0.499l-6.329,0.619c-1.367,0.133-2.206,0.367-2.507,0.696
				c-0.432,0.456-0.61,1.091-0.53,1.904l0.086,0.851l-0.598,0.055l-0.912-9.326l0.591-0.059l0.086,0.82
				c0.086,0.918,0.45,1.549,1.091,1.885c0.351,0.191,1.152,0.228,2.391,0.108l14.062-1.38c1.374-0.133,2.212-0.367,2.514-0.699
				c0.432-0.462,0.604-1.109,0.524-1.932l-0.08-0.82l0.591-0.058l0.776,7.933c0.229,2.311,0.229,4.03,0,5.161
				c-0.233,1.131-0.757,2.123-1.589,2.979c-0.832,0.854-1.874,1.341-3.125,1.464c-1.337,0.132-2.545-0.191-3.611-0.967
				c-1.072-0.776-1.897-2.058-2.489-3.848l-5.798,5.105c-1.337,1.167-2.206,2.147-2.601,2.93c-0.4,0.786-0.604,1.777-0.616,2.979
				L215.684,127.43z M225.358,110.869c0.019,0.203,0.03,0.382,0.043,0.533c0.006,0.151,0.019,0.271,0.024,0.37
				c0.203,2.077,0.807,3.595,1.812,4.563c0.999,0.964,2.199,1.38,3.586,1.244c1.362-0.132,2.428-0.665,3.198-1.602
				c0.764-0.934,1.079-2.102,0.942-3.503c-0.061-0.623-0.246-1.451-0.554-2.493L225.358,110.869z"/>
			<path style="fill:#144B8E;" d="M235.932,143.869l-7.511-0.878l0.067-0.591c1.466-0.025,2.656-0.234,3.562-0.632
				c0.918-0.397,1.676-1.026,2.286-1.885c0.61-0.863,0.967-1.781,1.085-2.767c0.129-1.109-0.105-2.067-0.697-2.875
				c-0.591-0.804-1.318-1.257-2.187-1.358c-0.659-0.077-1.294,0.083-1.892,0.478c-0.881,0.57-2.126,2.021-3.759,4.353
				c-1.325,1.904-2.317,3.192-2.988,3.867c-0.671,0.675-1.423,1.165-2.255,1.476c-0.838,0.308-1.689,0.413-2.557,0.311
				c-1.646-0.191-2.989-0.995-4.03-2.413c-1.042-1.414-1.448-3.124-1.214-5.133c0.074-0.631,0.191-1.22,0.351-1.762
				c0.093-0.327,0.364-0.989,0.826-1.994c0.456-1.001,0.702-1.642,0.733-1.919c0.03-0.268-0.024-0.486-0.167-0.659
				c-0.142-0.176-0.462-0.326-0.949-0.462l0.062-0.592l7.456,0.869l-0.068,0.591c-1.589,0.096-2.804,0.333-3.636,0.715
				c-0.825,0.379-1.559,1.023-2.181,1.932c-0.622,0.906-1.004,1.935-1.14,3.087c-0.154,1.337,0.074,2.434,0.69,3.29
				c0.617,0.857,1.399,1.34,2.366,1.451c0.53,0.065,1.091-0.021,1.67-0.249c0.58-0.234,1.14-0.629,1.682-1.192
				c0.364-0.382,1.177-1.439,2.44-3.177c1.257-1.738,2.243-2.964,2.952-3.675c0.708-0.715,1.46-1.229,2.261-1.55
				c0.795-0.317,1.639-0.425,2.539-0.317c1.56,0.179,2.835,0.933,3.814,2.265c0.993,1.325,1.381,2.914,1.159,4.76
				c-0.129,1.155-0.555,2.345-1.27,3.571c-0.339,0.57-0.523,0.977-0.555,1.22c-0.024,0.277,0.031,0.514,0.173,0.711
				c0.148,0.194,0.462,0.373,0.949,0.54L235.932,143.869z"/>
			<path style="fill:#144B8E;" d="M211.02,153.774l-0.567-0.157l2.508-9.034l0.574,0.161l-0.204,0.749
				c-0.241,0.869-0.166,1.571,0.234,2.107c0.258,0.339,1.022,0.687,2.286,1.038l13.618,3.787c1.065,0.295,1.793,0.425,2.169,0.385
				c0.29-0.034,0.567-0.182,0.844-0.453c0.375-0.388,0.634-0.826,0.771-1.325l0.209-0.746l0.573,0.157l-2.508,9.033l-0.573-0.16
				l0.21-0.761c0.24-0.859,0.16-1.559-0.241-2.095c-0.259-0.348-1.022-0.702-2.286-1.054l-13.618-3.784
				c-1.06-0.299-1.787-0.428-2.169-0.388c-0.284,0.03-0.567,0.188-0.851,0.468c-0.37,0.376-0.622,0.813-0.764,1.31L211.02,153.774z
				 M238.267,156.479c-0.129,0.466-0.4,0.82-0.825,1.06c-0.425,0.237-0.869,0.293-1.338,0.164c-0.467-0.129-0.819-0.407-1.06-0.832
				c-0.24-0.425-0.296-0.869-0.167-1.334c0.129-0.468,0.407-0.82,0.832-1.06c0.425-0.238,0.869-0.293,1.337-0.164
				c0.462,0.129,0.819,0.403,1.06,0.823C238.348,155.556,238.402,156.002,238.267,156.479z"/>
			<path style="fill:#144B8E;" d="M222.573,180.45l-4.751-1.95l0.259-0.558c0.869,0.277,1.516,0.404,1.953,0.382
				c0.708-0.037,1.313-0.247,1.812-0.623c0.505-0.379,0.949-0.974,1.331-1.793l1.3-2.792l-15.146-7.068
				c-1.213-0.57-2.04-0.792-2.458-0.672c-0.585,0.182-1.054,0.656-1.417,1.423l-0.321,0.69l-0.542-0.256l3.925-8.405l0.542,0.252
				l-0.327,0.703c-0.394,0.838-0.419,1.55-0.074,2.138c0.21,0.357,0.875,0.798,1.984,1.319l15.14,7.065l1.115-2.382
				c0.432-0.927,0.672-1.618,0.721-2.07c0.049-0.592-0.105-1.192-0.462-1.796c-0.357-0.607-0.974-1.152-1.836-1.642l0.259-0.555
				l4.541,2.403L222.573,180.45z"/>
			<path style="fill:#144B8E;" d="M215.037,189.406l-6.877-5.244l-2.915,3.823c-0.758,0.989-1.116,1.765-1.066,2.33
				c0.049,0.745,0.554,1.521,1.51,2.329l-0.364,0.471l-6.051-4.615l0.357-0.475c0.937,0.527,1.571,0.82,1.904,0.884
				c0.419,0.074,0.844,0.003,1.281-0.222c0.438-0.219,0.937-0.69,1.492-1.417l2.914-3.823l-5.736-4.375
				c-0.764-0.585-1.263-0.909-1.479-0.964c-0.223-0.062-0.444-0.043-0.679,0.052c-0.221,0.095-0.523,0.385-0.887,0.863l-2.25,2.952
				c-0.752,0.983-1.226,1.75-1.429,2.298c-0.204,0.548-0.259,1.183-0.172,1.897c0.129,0.934,0.512,2.089,1.158,3.46l-0.388,0.512
				l-3.217-4.828l10.222-13.402l0.474,0.36l-0.468,0.616c-0.314,0.41-0.517,0.875-0.598,1.393c-0.074,0.379-0.013,0.721,0.191,1.029
				c0.197,0.305,0.72,0.782,1.565,1.426l11.301,8.621c1.103,0.841,1.867,1.248,2.292,1.223c0.579-0.049,1.14-0.431,1.688-1.149
				l0.474-0.616l0.475,0.363l-10.229,13.402l-3.956-2.711l0.382-0.505c1.054,0.521,1.836,0.804,2.341,0.844
				c0.511,0.046,1.017-0.08,1.522-0.37c0.388-0.244,0.912-0.795,1.571-1.661L215.037,189.406z"/>
			<path style="fill:#144B8E;" d="M194.271,213.543l-4.955-5.719l0.456-0.391c1.097,0.971,2.113,1.617,3.056,1.941
				c0.937,0.324,1.922,0.376,2.958,0.151c1.029-0.225,1.923-0.663,2.662-1.31c0.851-0.733,1.325-1.596,1.43-2.588
				c0.104-1.002-0.124-1.824-0.697-2.483c-0.438-0.502-1.011-0.811-1.719-0.924c-1.029-0.172-2.933,0.052-5.712,0.681
				c-2.262,0.509-3.864,0.786-4.813,0.832c-0.956,0.049-1.843-0.099-2.662-0.438c-0.832-0.338-1.522-0.834-2.095-1.488
				c-1.085-1.257-1.535-2.754-1.35-4.504c0.184-1.748,1.041-3.285,2.569-4.606c0.481-0.416,0.962-0.773,1.449-1.063
				c0.29-0.179,0.943-0.48,1.954-0.915c1.016-0.428,1.626-0.736,1.836-0.918c0.203-0.175,0.314-0.375,0.327-0.601
				c0.012-0.225-0.124-0.551-0.395-0.983l0.45-0.391l4.911,5.669l-0.45,0.388c-1.238-1.001-2.292-1.642-3.161-1.922
				c-0.869-0.277-1.836-0.296-2.914-0.046c-1.072,0.247-2.047,0.749-2.928,1.513c-1.017,0.878-1.583,1.843-1.707,2.887
				c-0.129,1.05,0.129,1.938,0.764,2.671c0.351,0.406,0.819,0.718,1.398,0.939c0.585,0.219,1.27,0.305,2.046,0.256
				c0.53-0.031,1.843-0.262,3.95-0.696c2.095-0.432,3.647-0.672,4.658-0.718c1.004-0.049,1.91,0.083,2.711,0.385
				c0.802,0.299,1.498,0.789,2.089,1.473c1.029,1.186,1.46,2.603,1.294,4.251c-0.172,1.642-0.955,3.075-2.366,4.295
				c-0.875,0.761-1.99,1.35-3.346,1.774c-0.635,0.188-1.041,0.367-1.226,0.527c-0.215,0.185-0.333,0.395-0.357,0.641
				c-0.025,0.24,0.086,0.585,0.339,1.038L194.271,213.543z"/>
			<path style="fill:#144B8E;" d="M169.217,204.047l-0.314-0.502l7.942-4.982l0.314,0.505l-0.653,0.413
				c-0.771,0.481-1.183,1.054-1.251,1.716c-0.037,0.428,0.296,1.199,0.993,2.308l7.505,11.979c0.591,0.937,1.035,1.519,1.343,1.744
				c0.234,0.172,0.542,0.25,0.93,0.237c0.537-0.034,1.029-0.185,1.467-0.461l0.653-0.41l0.321,0.508l-7.943,4.976l-0.32-0.508
				l0.671-0.419c0.758-0.471,1.165-1.042,1.232-1.704c0.043-0.435-0.283-1.21-0.979-2.32l-7.505-11.973
				c-0.585-0.939-1.036-1.519-1.343-1.75c-0.234-0.167-0.548-0.244-0.943-0.228c-0.529,0.031-1.01,0.182-1.447,0.45L169.217,204.047
				z M187.523,224.406c-0.407,0.256-0.851,0.333-1.325,0.225c-0.475-0.11-0.838-0.37-1.097-0.776
				c-0.259-0.413-0.333-0.857-0.228-1.331c0.11-0.475,0.37-0.838,0.782-1.094c0.407-0.259,0.851-0.335,1.325-0.222
				c0.475,0.104,0.838,0.367,1.097,0.773c0.259,0.416,0.333,0.854,0.234,1.325C188.208,223.78,187.943,224.144,187.523,224.406z"/>
		</g>
		<path style="fill:#144B8E;" d="M170.412,220.441c0-2.36-1.911-4.273-4.264-4.273c-2.36,0-4.271,1.913-4.271,4.273
			c0,2.354,1.911,4.264,4.271,4.264C168.501,224.705,170.412,222.795,170.412,220.441z"/>
		<path style="fill:#144B8E;" d="M92.463,220.441c0-2.36-1.91-4.273-4.267-4.273s-4.268,1.913-4.268,4.273
			c0,2.354,1.911,4.264,4.268,4.264S92.463,222.795,92.463,220.441z"/>
		<g>
			<g>
				<path style="fill:#144B8E;" d="M108.404,219.575l4.042-0.977l0.364,0.08l-2.785,12.666c-0.185,0.838-0.265,1.371-0.241,1.59
					c0.025,0.225,0.136,0.413,0.333,0.573c0.197,0.16,0.634,0.323,1.307,0.487l-0.086,0.406l-5.645-1.241l0.092-0.403
					c0.708,0.141,1.181,0.179,1.411,0.12c0.231-0.065,0.407-0.179,0.524-0.339c0.123-0.167,0.284-0.694,0.481-1.596l1.781-8.094
					c0.24-1.091,0.357-1.806,0.351-2.129c0-0.25-0.056-0.44-0.167-0.579c-0.114-0.142-0.265-0.234-0.458-0.277
					c-0.274-0.062-0.674-0.028-1.214,0.092L108.404,219.575z"/>
				<path style="fill:#144B8E;" d="M116.544,235.633l0.04-0.419c0.977,0.074,1.907-0.067,2.795-0.428
					c0.881-0.36,1.762-1.057,2.649-2.086c0.891-1.023,1.547-2.182,1.978-3.466c-1.25,0.65-2.354,0.934-3.309,0.841
					c-1.075-0.096-1.959-0.598-2.649-1.5c-0.69-0.9-0.971-2.04-0.844-3.414c0.123-1.34,0.616-2.495,1.479-3.472
					c1.042-1.18,2.308-1.707,3.796-1.572c1.257,0.12,2.286,0.737,3.081,1.855c0.98,1.387,1.387,3.025,1.211,4.911
					c-0.157,1.701-0.721,3.244-1.691,4.637c-0.967,1.396-2.244,2.505-3.82,3.34c-1.285,0.684-2.641,0.964-4.07,0.832
					L116.544,235.633z M124.265,228.415c0.222-0.964,0.364-1.738,0.418-2.326c0.065-0.73,0.013-1.525-0.154-2.4
					c-0.172-0.863-0.465-1.547-0.877-2.04c-0.417-0.493-0.909-0.764-1.489-0.823c-0.668-0.059-1.285,0.185-1.842,0.742
					c-0.561,0.558-0.894,1.43-1.004,2.613c-0.145,1.587,0.073,2.859,0.662,3.817c0.429,0.693,1.001,1.069,1.716,1.137
					c0.346,0.031,0.764-0.015,1.251-0.135C123.433,228.876,123.874,228.686,124.265,228.415z"/>
				<path style="fill:#144B8E;" d="M129.41,236.582l-0.015-0.416c0.98-0.049,1.888-0.308,2.714-0.779
					c0.832-0.468,1.624-1.269,2.375-2.4c0.752-1.127,1.26-2.354,1.525-3.685c-1.158,0.801-2.218,1.217-3.18,1.248
					c-1.078,0.037-2.015-0.345-2.816-1.155c-0.795-0.807-1.22-1.901-1.263-3.281c-0.049-1.35,0.299-2.555,1.032-3.626
					c0.884-1.31,2.073-1.987,3.571-2.04c1.257-0.043,2.354,0.444,3.291,1.451c1.146,1.257,1.75,2.828,1.812,4.726
					c0.062,1.704-0.308,3.309-1.093,4.813c-0.789,1.5-1.914,2.77-3.374,3.792c-1.189,0.838-2.502,1.285-3.932,1.331L129.41,236.582z
					 M136.164,228.458c0.099-0.989,0.142-1.775,0.124-2.36c-0.024-0.733-0.179-1.522-0.456-2.363
					c-0.277-0.838-0.65-1.479-1.121-1.916c-0.475-0.438-0.999-0.644-1.581-0.625c-0.675,0.021-1.251,0.345-1.735,0.961
					c-0.487,0.625-0.708,1.532-0.668,2.724c0.052,1.593,0.431,2.829,1.134,3.7c0.511,0.635,1.124,0.937,1.845,0.912
					c0.345-0.009,0.752-0.104,1.223-0.29C135.4,229.019,135.807,228.772,136.164,228.458z"/>
				<path style="fill:#144B8E;" d="M142.301,235.91l-0.068-0.412c0.968-0.176,1.83-0.545,2.594-1.119
					c0.765-0.573,1.449-1.463,2.053-2.678c0.604-1.217,0.949-2.499,1.047-3.857c-1.054,0.945-2.052,1.494-2.995,1.645
					c-1.065,0.172-2.045-0.089-2.939-0.792c-0.893-0.699-1.454-1.729-1.675-3.09c-0.216-1.331-0.025-2.572,0.566-3.731
					c0.715-1.408,1.806-2.233,3.278-2.474c1.245-0.203,2.397,0.142,3.451,1.023c1.294,1.097,2.095,2.583,2.397,4.452
					c0.277,1.686,0.117,3.325-0.475,4.917c-0.591,1.59-1.546,2.988-2.865,4.19c-1.072,0.979-2.317,1.589-3.734,1.821L142.301,235.91
					z M147.964,226.991c-0.019-0.992-0.08-1.778-0.172-2.36c-0.117-0.724-0.37-1.485-0.752-2.279
					c-0.382-0.798-0.832-1.384-1.355-1.76c-0.524-0.373-1.072-0.511-1.645-0.422c-0.666,0.108-1.195,0.502-1.603,1.18
					c-0.401,0.678-0.505,1.602-0.314,2.779c0.253,1.578,0.783,2.751,1.59,3.528c0.592,0.561,1.239,0.786,1.947,0.675
					c0.345-0.056,0.733-0.204,1.177-0.444C147.28,227.647,147.656,227.346,147.964,226.991z"/>
			</g>
		</g>
	</g>
</g>
</svg>
